<svg xmlns="http://www.w3.org/2000/svg" viewBox="0 0 256 256" width="256" height="256">
<defs>
<linearGradient id="gl" x1="0" y1="0" x2="1" y2="0"><stop offset="0" stop-color="#ffffff" stop-opacity=".55"/><stop offset=".45" stop-color="#ffffff" stop-opacity=".12"/><stop offset="1" stop-color="#cfe8f5" stop-opacity=".40"/></linearGradient>
<linearGradient id="lq" x1="0" y1="0" x2="0" y2="1"><stop offset="0" stop-color="#7fdcff"/><stop offset="1" stop-color="#1f56d8"/></linearGradient>
</defs>
<clipPath id="cup"><path d="M62,74 h132 l-52,74 v46 h26 a10,10 0 0 1 0,20 h-64 a10,10 0 0 1 0,-20 h26 v-46 z"/></clipPath>
<path d="M62,74 h132 l-52,74 v46 h26 a10,10 0 0 1 0,20 h-64 a10,10 0 0 1 0,-20 h26 v-46 z" fill="url(#gl)"/>
<g clip-path="url(#cup)"><path d="M66,86 h124 l-52,66 h-20 z" fill="url(#lq)"/><ellipse cx="128" cy="88" rx="60" ry="10" fill="#ffffff" fill-opacity=".45"/><rect x="100" y="98" width="24" height="20" rx="7" fill="#ffffff" fill-opacity="0.55" transform="rotate(-14 112 108)"/><rect x="135" y="101" width="22" height="18" rx="7" fill="#ffffff" fill-opacity="0.55" transform="rotate(12 146 110)"/><rect x="80" y="88" width="10" height="44" rx="5.0" fill="#ffffff" fill-opacity="0.3" transform="rotate(18 85.0 110.0)"/></g>
<path d="M62,74 h132 l-52,74 v46 h26 a10,10 0 0 1 0,20 h-64 a10,10 0 0 1 0,-20 h26 v-46 z" fill="none" stroke="#6b4a33" stroke-opacity=".22" stroke-width="4"/>
<ellipse cx="128" cy="74" rx="66" ry="13" fill="none" stroke="#d8f2ff" stroke-width="7" stroke-opacity=".9"/>
<g transform="rotate(12 190 76)"><circle cx="190" cy="76" r="28" fill="#ffd23f"/><circle cx="190" cy="76" r="21.8" fill="#fff2b8"/><line x1="190" y1="76" x2="210.2" y2="76.0" stroke="#ffd23f" stroke-width="2.5"/><line x1="190" y1="76" x2="200.1" y2="93.5" stroke="#ffd23f" stroke-width="2.5"/><line x1="190" y1="76" x2="179.9" y2="93.5" stroke="#ffd23f" stroke-width="2.5"/><line x1="190" y1="76" x2="169.8" y2="76.0" stroke="#ffd23f" stroke-width="2.5"/><line x1="190" y1="76" x2="179.9" y2="58.5" stroke="#ffd23f" stroke-width="2.5"/><line x1="190" y1="76" x2="200.1" y2="58.5" stroke="#ffd23f" stroke-width="2.5"/></g><circle cx="128" cy="196" r="4" fill="#ffffff" fill-opacity=".35"/>
</svg>
